<?xml version="1.0" standalone="no"?>
<!DOCTYPE svg PUBLIC "-//W3C//DTD SVG 20010904//EN"
 "http://www.w3.org/TR/2001/REC-SVG-20010904/DTD/svg10.dtd">
<svg version="1.0" xmlns="http://www.w3.org/2000/svg"
 width="512.000000pt" height="512.000000pt" viewBox="0 0 512.000000 512.000000"
 preserveAspectRatio="xMidYMid meet">
<metadata>
Created by potrace 1.14, written by Peter Selinger 2001-2017
</metadata>
<g transform="translate(0.000000,512.000000) scale(0.100000,-0.100000)"
fill="#000000" stroke="none">
<path d="M2379 5116 c-2 -2 -35 -6 -74 -10 -38 -3 -97 -10 -130 -16 -33 -6
-76 -13 -95 -16 -69 -10 -305 -75 -399 -110 -219 -80 -551 -265 -701 -391 -8
-7 -37 -31 -65 -54 -202 -167 -443 -452 -562 -664 -173 -309 -268 -573 -318
-880 -2 -11 -6 -36 -9 -55 -22 -131 -29 -543 -11 -650 3 -19 12 -75 20 -125
67 -411 236 -801 493 -1140 68 -89 183 -216 277 -306 358 -341 883 -601 1344
-665 20 -3 79 -11 131 -18 88 -12 496 -14 560 -2 14 2 45 7 70 10 347 51 683
170 981 351 87 52 274 188 343 250 252 221 457 484 606 775 121 239 213 517
246 750 2 19 6 44 9 55 20 96 27 457 13 605 -21 205 -71 430 -136 605 -52 141
-72 187 -132 305 -212 414 -529 760 -930 1014 -246 155 -608 296 -875 341 -16
3 -39 7 -51 9 -12 2 -45 7 -74 11 -29 4 -62 9 -74 12 -24 5 -452 14 -457 9z
m461 -279 c14 -3 59 -11 100 -17 566 -91 1099 -417 1454 -890 167 -223 279
-444 361 -716 36 -120 38 -124 60 -247 24 -131 30 -214 30 -412 0 -172 -5
-264 -20 -350 -62 -361 -187 -668 -390 -961 -369 -530 -969 -887 -1615 -961
-85 -10 -448 -10 -525 0 -584 75 -1084 341 -1466 779 -294 337 -492 783 -546
1228 -16 131 -8 543 12 620 2 8 7 35 10 60 8 59 58 247 88 335 115 330 295
619 539 864 276 277 588 467 953 580 146 45 207 58 395 86 83 12 505 14 560 2z"/>
<path d="M2422 3879 c-42 -9 -87 -43 -105 -81 -8 -18 -59 -134 -112 -258 -53
-124 -113 -261 -132 -305 -46 -104 -53 -120 -108 -250 -26 -60 -55 -128 -65
-150 -10 -22 -46 -105 -80 -185 -34 -80 -69 -163 -79 -185 -10 -22 -69 -157
-131 -300 -61 -143 -130 -300 -152 -350 -43 -99 -50 -142 -25 -160 12 -9 78
-12 229 -11 286 1 263 -14 369 256 62 160 71 176 118 199 33 17 68 18 413 17
363 -1 378 -2 405 -22 33 -24 60 -75 132 -253 57 -140 81 -174 133 -189 18 -5
121 -9 228 -9 181 0 238 7 241 29 1 4 2 14 3 21 2 13 -30 98 -71 187 -14 30
-44 100 -68 155 -52 120 -140 325 -165 380 -10 22 -115 263 -233 535 -289 666
-296 682 -307 705 -5 11 -23 51 -40 90 -55 124 -77 136 -246 138 -68 1 -136
-1 -152 -4z m191 -824 c26 -66 50 -127 54 -135 52 -128 115 -296 119 -313 6
-34 -4 -55 -34 -64 -42 -14 -402 -10 -429 5 -34 19 -29 45 32 202 30 77 78
199 106 272 28 73 56 139 62 146 23 29 42 5 90 -113z"/>
</g>
</svg>
